<?xml version="1.0" standalone="no"?>
<!DOCTYPE svg PUBLIC "-//W3C//DTD SVG 20010904//EN"
 "http://www.w3.org/TR/2001/REC-SVG-20010904/DTD/svg10.dtd">
<svg version="1.0" xmlns="http://www.w3.org/2000/svg"
 width="600.000000pt" height="600.000000pt" viewBox="0 0 600.000000 600.000000"
 preserveAspectRatio="xMidYMid meet">
<metadata>
Created by potrace 1.11, written by Peter Selinger 2001-2013
</metadata>
<g transform="translate(0.000000,600.000000) scale(0.100000,-0.100000)"
fill="#000000" stroke="none">
<path d="M2788 5965 c-2 -2 -46 -6 -98 -10 -52 -4 -102 -9 -111 -10 -9 -2 -40
-6 -69 -10 -51 -7 -67 -9 -120 -20 -14 -2 -40 -7 -57 -10 -80 -13 -295 -72
-366 -100 -20 -8 -40 -15 -45 -16 -81 -14 -411 -180 -582 -294 -199 -132 -439
-336 -528 -449 -12 -16 -22 -25 -22 -21 0 5 -16 -13 -36 -38 -20 -26 -41 -47
-46 -47 -5 0 -6 -4 -3 -10 3 -5 2 -10 -2 -10 -5 0 -25 -21 -45 -47 -20 -27
-46 -58 -57 -70 -12 -12 -21 -25 -21 -28 0 -4 -16 -26 -35 -49 -19 -24 -35
-46 -35 -49 0 -4 -7 -15 -15 -24 -8 -10 -15 -21 -15 -25 0 -5 -7 -16 -16 -25
-26 -30 -64 -93 -64 -107 0 -8 -7 -17 -16 -20 -8 -3 -13 -10 -9 -15 3 -5 1
-12 -4 -15 -13 -8 -52 -86 -43 -86 4 0 2 -4 -4 -8 -14 -9 -77 -142 -120 -252
-47 -123 -107 -325 -130 -435 -2 -11 -6 -31 -9 -45 -8 -40 -31 -185 -40 -250
-19 -148 -25 -486 -12 -675 3 -49 7 -90 7 -90 1 0 4 -20 6 -45 21 -216 117
-575 206 -780 32 -72 122 -255 129 -260 3 -3 12 -20 20 -38 8 -17 17 -32 21
-32 5 0 8 -5 8 -11 0 -11 151 -241 170 -259 3 -3 35 -41 70 -85 119 -146 291
-322 424 -430 27 -22 56 -48 65 -57 8 -10 19 -18 23 -18 7 0 36 -21 63 -47 8
-7 17 -13 20 -13 4 0 24 -13 45 -30 21 -16 43 -30 49 -30 6 0 11 -4 11 -8 0
-5 17 -17 38 -28 20 -10 39 -21 42 -24 29 -32 383 -206 406 -200 4 1 10 -2 13
-7 6 -8 164 -68 207 -78 10 -2 53 -14 94 -25 41 -12 113 -30 160 -40 47 -10
101 -22 120 -26 61 -13 966 -17 1050 -4 107 16 309 59 328 69 10 5 20 9 25 9
17 1 74 15 97 25 14 6 27 11 30 12 79 19 359 137 440 185 235 138 390 240 398
261 2 5 10 9 17 9 7 0 15 3 17 8 2 4 28 27 58 52 94 76 267 244 357 347 32 36
65 74 74 83 9 10 36 44 60 76 24 33 50 65 57 72 6 7 12 17 12 20 0 4 10 19 23
33 12 14 28 34 34 45 114 180 129 207 194 337 58 114 99 205 99 217 0 5 11 34
25 65 13 30 24 59 25 63 0 4 9 36 20 72 11 36 20 68 20 72 1 4 6 22 11 40 6
18 12 42 14 53 3 11 7 30 10 43 21 95 27 128 45 252 19 129 24 228 24 430 0
209 -6 308 -29 480 -4 25 -8 61 -11 80 -2 19 -9 50 -14 70 -5 19 -11 51 -14
70 -3 19 -15 69 -25 110 -11 41 -23 86 -26 100 -4 14 -9 32 -12 40 -2 8 -5 17
-5 20 -1 7 -57 168 -70 199 -6 14 -12 31 -13 37 -2 6 -28 64 -59 127 -31 64
-56 121 -56 126 0 6 -4 11 -9 11 -5 0 -14 15 -22 33 -7 17 -20 43 -29 57 -10
14 -45 69 -80 122 -34 54 -70 107 -79 117 -44 52 -51 62 -51 67 0 4 -15 23
-32 43 -18 20 -52 59 -75 86 -79 94 -230 242 -336 330 -27 22 -55 46 -62 53
-8 6 -18 12 -23 12 -6 0 -12 3 -14 8 -5 13 -85 72 -97 72 -6 0 -11 4 -11 10 0
8 -27 26 -101 65 -11 5 -19 13 -19 17 0 5 -5 8 -11 8 -6 0 -23 9 -38 19 -39
28 -255 135 -348 172 -13 5 -33 13 -45 18 -42 18 -202 71 -263 87 -170 45
-359 82 -366 71 -4 -6 -8 -5 -10 1 -4 9 -22 13 -137 27 -100 12 -179 16 -389
19 -122 2 -223 2 -225 1z m317 -1489 c105 -8 265 -45 377 -88 72 -27 270 -139
302 -170 7 -7 39 -35 71 -63 50 -42 95 -88 175 -174 8 -9 26 -32 40 -51 13
-19 32 -44 42 -54 10 -11 18 -24 18 -28 0 -5 8 -18 18 -28 36 -39 169 -321
187 -395 3 -11 11 -47 20 -80 8 -33 17 -78 20 -100 3 -22 8 -47 10 -55 6 -24
17 -180 17 -240 -1 -129 -13 -238 -37 -337 -3 -13 -7 -33 -10 -45 -21 -95
-105 -287 -173 -393 -25 -38 -44 -71 -44 -72 1 -2 -6 -11 -15 -21 -10 -10 -29
-33 -43 -52 -45 -61 -154 -171 -230 -235 -68 -56 -222 -165 -235 -166 -2 0
-35 -14 -72 -30 -38 -17 -77 -35 -88 -39 -22 -10 -119 -41 -138 -44 -136 -28
-219 -38 -327 -38 -59 -1 -214 10 -240 17 -3 1 -21 5 -40 9 -59 13 -166 45
-207 62 -21 9 -40 16 -43 16 -3 0 -12 5 -20 12 -8 6 -39 23 -67 36 -29 14 -53
28 -53 33 0 4 -5 7 -11 7 -6 0 -25 11 -43 25 -17 14 -41 33 -54 42 -50 38
-108 90 -151 136 -25 27 -61 64 -78 83 -18 19 -33 39 -33 44 0 6 -3 10 -7 10
-5 0 -19 17 -33 38 -14 20 -27 39 -30 42 -12 12 -52 72 -74 112 -13 24 -37 68
-54 98 -16 30 -30 57 -29 60 0 3 -7 21 -16 40 -51 113 -91 284 -103 436 -3 49
-8 92 -11 97 -2 4 1 7 7 7 7 0 8 6 2 18 -4 9 -7 26 -6 37 1 11 5 58 8 105 17
216 68 411 157 593 37 75 77 147 88 157 4 3 12 17 20 33 8 15 18 27 23 27 4 0
8 5 8 11 0 6 6 16 13 23 6 7 23 28 37 46 48 65 207 216 281 266 121 83 257
150 359 175 98 25 176 39 247 45 43 3 79 7 80 8 3 3 86 0 188 -8z"/>
</g>
</svg>
